<svg width="16" height="15" viewBox="0 0 16 15" fill="none" xmlns="http://www.w3.org/2000/svg">
<path d="M8.39724 0.102072C8.14723 -0.0340239 7.85277 -0.0340239 7.60276 0.102072L0.491266 3.97323C0.0523538 4.21216 -0.125433 4.79283 0.0940227 5.27068C0.313479 5.74853 0.846841 5.94208 1.28575 5.70316L8 2.04975L14.7142 5.70316C15.1532 5.94208 15.6865 5.74853 15.906 5.27068C16.1254 4.79283 15.9476 4.21216 15.5087 3.97323L8.39724 0.102072ZM8 8.70936C8.41258 8.70936 8.80826 8.53092 9.1 8.21331C9.39174 7.89569 9.55564 7.46491 9.55564 7.01573C9.55564 6.56655 9.39174 6.13576 9.1 5.81815C8.80826 5.50053 8.41258 5.32209 8 5.32209C7.58742 5.32209 7.19174 5.50053 6.9 5.81815C6.60826 6.13576 6.44436 6.56655 6.44436 7.01573C6.44436 7.46491 6.60826 7.89569 6.9 8.21331C7.19174 8.53092 7.58742 8.70936 8 8.70936ZM8 10.161C6.5277 10.161 5.33319 11.4615 5.33319 13.0644V14.0322C5.33319 14.5675 5.73043 15 6.22213 15H9.77787C10.2696 15 10.6668 14.5675 10.6668 14.0322V13.0644C10.6668 11.4615 9.4723 10.161 8 10.161ZM4.44425 8.22547C4.44425 8.03483 4.40977 7.84606 4.34276 7.66993C4.27575 7.4938 4.17753 7.33377 4.05371 7.19897C3.92989 7.06417 3.7829 6.95724 3.62112 6.88428C3.45935 6.81133 3.28596 6.77378 3.11085 6.77378C2.93575 6.77378 2.76235 6.81133 2.60058 6.88428C2.4388 6.95724 2.29181 7.06417 2.16799 7.19897C2.04417 7.33377 1.94596 7.4938 1.87895 7.66993C1.81194 7.84606 1.77745 8.03483 1.77745 8.22547C1.77745 8.4161 1.81194 8.60487 1.87895 8.781C1.94596 8.95713 2.04417 9.11716 2.16799 9.25196C2.29181 9.38676 2.4388 9.49369 2.60058 9.56665C2.76235 9.6396 2.93575 9.67715 3.11085 9.67715C3.28596 9.67715 3.45935 9.6396 3.62112 9.56665C3.7829 9.49369 3.92989 9.38676 4.05371 9.25196C4.17753 9.11716 4.27575 8.95713 4.34276 8.781C4.40977 8.60487 4.44425 8.4161 4.44425 8.22547ZM14.2226 8.22547C14.2226 7.84045 14.0821 7.47121 13.832 7.19897C13.5819 6.92672 13.2428 6.77378 12.8892 6.77378C12.5355 6.77378 12.1964 6.92672 11.9463 7.19897C11.6962 7.47121 11.5557 7.84045 11.5557 8.22547C11.5557 8.61048 11.6962 8.97972 11.9463 9.25196C12.1964 9.52421 12.5355 9.67715 12.8892 9.67715C13.2428 9.67715 13.5819 9.52421 13.832 9.25196C14.0821 8.97972 14.2226 8.61048 14.2226 8.22547ZM3.11085 10.6449C1.88301 10.6449 0.888509 11.7277 0.888509 13.0644V14.0655C0.888509 14.5796 1.27186 15 1.74689 15H4.18591C4.06646 14.7036 3.99979 14.377 3.99979 14.0322V12.5805C3.99979 12.024 4.09701 11.4918 4.27202 11.0018C3.93312 10.775 3.53587 10.6449 3.11085 10.6449ZM11.8169 15H14.2559C14.7281 15 15.1143 14.5826 15.1143 14.0655V13.0644C15.1143 11.7277 14.1198 10.6449 12.8919 10.6449C12.4669 10.6449 12.0697 10.775 11.7308 11.0018C11.9058 11.4918 12.003 12.024 12.003 12.5805V14.0322C12.003 14.377 11.9363 14.7036 11.8169 15Z" fill="#1B264F"/>
</svg>
