<svg width="11" height="15" viewBox="0 0 11 15" fill="none" xmlns="http://www.w3.org/2000/svg">
<path d="M7.33333 0C8.01224 0 8.60521 0.37793 8.92031 0.9375H9.16667C10.1779 0.9375 11 1.77832 11 2.8125V13.125C11 14.1592 10.1779 15 9.16667 15H1.83333C0.822135 15 0 14.1592 0 13.125V2.8125C0 1.77832 0.822135 0.9375 1.83333 0.9375H2.07969C2.39479 0.37793 2.98776 0 3.66667 0H7.33333ZM8.10391 6.22852C7.7974 6 7.36771 6.07031 7.14427 6.38379L4.69219 9.83203L3.93307 9.0293C3.66953 8.75098 3.23411 8.74219 2.96198 9.01172C2.68984 9.28125 2.68125 9.72656 2.94479 10.0049L4.27396 11.4111C4.41432 11.5605 4.61198 11.6396 4.81536 11.625C5.01875 11.6104 5.20495 11.5049 5.32526 11.3379L8.25573 7.20996C8.47917 6.89648 8.41042 6.45703 8.10391 6.22852ZM3.89583 1.875C3.51484 1.875 3.20833 2.18848 3.20833 2.57812C3.20833 2.96777 3.51484 3.28125 3.89583 3.28125H7.10417C7.48516 3.28125 7.79167 2.96777 7.79167 2.57812C7.79167 2.18848 7.48516 1.875 7.10417 1.875H3.89583Z" fill="#FEFEFE"/>
</svg>
