<svg width="13" height="15" viewBox="0 0 13 15" fill="none" xmlns="http://www.w3.org/2000/svg">
<path d="M5.57143 0C4.5471 0 3.71429 0.84082 3.71429 1.875V9.375C3.71429 10.4092 4.5471 11.25 5.57143 11.25H11.1429C12.1672 11.25 13 10.4092 13 9.375V3.49805C13 2.98828 12.794 2.49902 12.4283 2.14453L10.754 0.521484C10.4087 0.1875 9.94732 0 9.46853 0H5.57143ZM1.85714 3.75C0.832812 3.75 0 4.59082 0 5.625V13.125C0 14.1592 0.832812 15 1.85714 15H7.42857C8.4529 15 9.28571 14.1592 9.28571 13.125V12.6562H7.42857V13.125H1.85714V5.625H2.32143V3.75H1.85714Z" fill="#FEFEFE"/>
</svg>
