<svg width="12" height="16" viewBox="0 0 12 16" fill="none" xmlns="http://www.w3.org/2000/svg">
<path d="M0 2C0 0.896875 0.896875 0 2 0H6.67188C7.20312 0 7.7125 0.209375 8.0875 0.584375L11.4156 3.91563C11.7906 4.29063 12 4.8 12 5.33125V14C12 15.1031 11.1031 16 10 16H2C0.896875 16 0 15.1031 0 14V2ZM6.5 1.82812V4.75C6.5 5.16563 6.83437 5.5 7.25 5.5H10.1719L6.5 1.82812ZM5.46875 13.7812C5.7625 14.075 6.2375 14.075 6.52812 13.7812L8.52812 11.7812C8.82187 11.4875 8.82187 11.0125 8.52812 10.7219C8.23437 10.4313 7.75938 10.4281 7.46875 10.7219L6.75 11.4406V8.75C6.75 8.33437 6.41563 8 6 8C5.58437 8 5.25 8.33437 5.25 8.75V11.4406L4.53125 10.7219C4.2375 10.4281 3.7625 10.4281 3.47188 10.7219C3.18125 11.0156 3.17813 11.4906 3.47188 11.7812L5.47188 13.7812H5.46875Z" fill="white"/>
</svg>
