<svg viewBox="0 0 27 27" fill="none" xmlns="http://www.w3.org/2000/svg">
<path d="M1.92087 0.330411C1.48021 -0.110137 0.767645 -0.110137 0.331669 0.330411C-0.104306 0.77096 -0.108994 1.48334 0.326981 1.92388L25.0791 26.6696C25.5198 27.1101 26.2324 27.1101 26.6683 26.6696C27.1043 26.229 27.109 25.5167 26.6683 25.0808L22.1492 20.5628C22.2758 20.4504 22.4023 20.3379 22.5242 20.2254C24.7182 18.1867 26.1855 15.7543 26.884 14.0811C27.0387 13.7109 27.0387 13.2985 26.884 12.9282C26.1855 11.2551 24.7182 8.818 22.5242 6.78398C20.3162 4.7359 17.2831 3.00651 13.4953 3.00651C10.8326 3.00651 8.54488 3.85949 6.65097 5.07802L1.92087 0.330411ZM8.29174 6.70431C9.79655 5.81852 11.5358 5.24675 13.5 5.24675C16.5565 5.24675 19.0692 6.634 20.996 8.41963C22.8008 10.0928 24.0478 12.0893 24.6807 13.4953C24.0431 14.9013 22.7961 16.8932 20.996 18.571C20.8506 18.7022 20.7053 18.8335 20.5553 18.9647L18.4598 16.8697C19.1161 15.909 19.5005 14.7467 19.5005 13.4953C19.5005 10.1818 16.8143 7.49635 13.5 7.49635C12.2483 7.49635 11.0857 7.88066 10.1247 8.5368L8.29174 6.70431ZM16.8237 15.2341L11.7608 10.1725C12.2811 9.90063 12.8718 9.74596 13.5 9.74596C15.5721 9.74596 17.2503 11.4238 17.2503 13.4953C17.2503 14.1233 17.0956 14.7139 16.8237 15.2341ZM4.84612 9.61474L3.25224 8.02126C1.72398 9.74596 0.673887 11.5738 0.116026 12.9189C-0.0386752 13.2891 -0.0386752 13.7015 0.116026 14.0718C0.814524 15.7449 2.28184 18.182 4.47578 20.216C6.68378 22.2641 9.71686 23.9935 13.5047 23.9935C15.2533 23.9935 16.8425 23.6232 18.2629 23.028L16.5096 21.2752C15.5721 21.5752 14.5688 21.7439 13.5 21.7439C10.4435 21.7439 7.93077 20.3566 6.00404 18.571C4.19919 16.8978 2.95221 14.9013 2.31934 13.4953C2.80688 12.4127 3.66008 10.9832 4.85081 9.61474H4.84612Z" fill="black"/>
</svg>
