<svg viewBox="0 0 27 21" fill="none" xmlns="http://www.w3.org/2000/svg">
<path d="M13.5035 2.25C10.4473 2.25 7.93477 3.6375 6.0082 5.42344C4.20352 7.10156 2.95664 9.09375 2.31914 10.5C2.95664 11.9062 4.20352 13.8984 6.0082 15.5766C7.93477 17.3625 10.4473 18.75 13.5035 18.75C16.5598 18.75 19.0723 17.3625 20.9988 15.5766C22.8035 13.8984 24.0504 11.9062 24.6879 10.5C24.0504 9.09375 22.8035 7.10156 20.9988 5.42344C19.0723 3.6375 16.5598 2.25 13.5035 2.25ZM4.47539 3.77813C6.6832 1.725 9.71602 0 13.5035 0C17.291 0 20.3238 1.725 22.5316 3.77813C24.7254 5.81719 26.1926 8.25 26.891 9.92344C27.0457 10.2938 27.0457 10.7062 26.891 11.0766C26.1926 12.75 24.7254 15.1875 22.5316 17.2219C20.3238 19.2703 17.291 21 13.5035 21C9.71602 21 6.6832 19.275 4.47539 17.2219C2.28164 15.1828 0.814453 12.75 0.116016 11.0766C-0.0386719 10.7062 -0.0386719 10.2938 0.116016 9.92344C0.814453 8.25 2.28164 5.8125 4.47539 3.77813ZM13.5035 14.25C15.5754 14.25 17.2535 12.5719 17.2535 10.5C17.2535 9.1125 16.4988 7.89844 15.3785 7.25156C15.3129 10.05 13.0535 12.3094 10.2551 12.375C10.902 13.4953 12.116 14.25 13.5035 14.25ZM9.77227 10.1063C9.88945 10.1203 10.0066 10.125 10.1285 10.125C11.7832 10.125 13.1285 8.77969 13.1285 7.125C13.1285 7.00313 13.1191 6.88594 13.1098 6.76875C11.3566 6.95156 9.95977 8.34844 9.77695 10.1016L9.77227 10.1063ZM11.9098 4.71563C12.416 4.575 12.9504 4.50469 13.4988 4.50469C13.9113 4.50469 14.3191 4.54687 14.7082 4.62656C14.7223 4.63125 14.7316 4.63125 14.7457 4.63594C17.4598 5.20781 19.4988 7.62188 19.4988 10.5047C19.4988 13.8188 16.8129 16.5047 13.4988 16.5047C10.6113 16.5047 8.20195 14.4656 7.63008 11.7516C7.5457 11.3484 7.49883 10.9313 7.49883 10.5047C7.49883 9.98906 7.56445 9.48281 7.68633 9.00469C7.6957 8.97188 7.70039 8.94375 7.70977 8.91563C8.26758 6.88125 9.8707 5.27812 11.9051 4.72031L11.9098 4.71563Z" fill="black"/>
</svg>
