<svg width="16" height="17" viewBox="0 0 16 17" fill="none" xmlns="http://www.w3.org/2000/svg">
<path d="M6.07775 0.796875C6.17193 0.334375 6.58321 0 7.06041 0H8.93783C9.41503 0 9.82631 0.334375 9.92049 0.796875L10.3757 2.98438C10.8184 3.17188 11.2328 3.4125 11.6095 3.69688L13.7381 2.99375C14.1902 2.84375 14.6862 3.03125 14.9248 3.44375L15.8636 5.0625C16.1022 5.475 16.0174 5.99375 15.6595 6.30937L13.9861 7.79063C14.0144 8.02188 14.027 8.25938 14.027 8.5C14.027 8.74062 14.0113 8.97813 13.9861 9.20938L15.6626 10.6938C16.0205 11.0094 16.1022 11.5313 15.8667 11.9406L14.928 13.5594C14.6894 13.9687 14.1933 14.1594 13.7413 14.0094L11.6127 13.3062C11.2328 13.5906 10.8184 13.8281 10.3789 14.0188L9.92677 16.2031C9.82945 16.6687 9.41817 17 8.94411 17H7.06669C6.58948 17 6.17821 16.6656 6.08403 16.2031L5.63194 14.0188C5.18927 13.8313 4.77799 13.5906 4.39812 13.3062L2.26012 14.0094C1.80803 14.1594 1.31199 13.9719 1.07339 13.5594L0.134679 11.9406C-0.103922 11.5281 -0.0191561 11.0094 0.338747 10.6938L2.01524 9.20938C1.98698 8.97813 1.97442 8.74062 1.97442 8.5C1.97442 8.25938 1.99012 8.02188 2.01524 7.79063L0.338747 6.30625C-0.0191561 5.99063 -0.100783 5.46875 0.134679 5.05937L1.07339 3.44062C1.31199 3.02812 1.80803 2.84062 2.26012 2.99062L4.3887 3.69375C4.76858 3.40937 5.18299 3.17188 5.62252 2.98125L6.07775 0.796875ZM7.99912 11C8.32895 10.9988 8.6553 10.9329 8.95955 10.8061C9.2638 10.6793 9.53998 10.4942 9.77233 10.2611C10.0047 10.0281 10.1886 9.75183 10.3137 9.44805C10.4388 9.14426 10.5025 8.81893 10.5013 8.49063C10.5001 8.16232 10.4339 7.83747 10.3065 7.53463C10.1791 7.23179 9.99311 6.95688 9.75901 6.7256C9.52491 6.49433 9.24734 6.31121 8.94215 6.18671C8.63695 6.06221 8.31011 5.99877 7.98028 6C7.65045 6.00123 7.3241 6.06711 7.01985 6.19389C6.7156 6.32066 6.43942 6.50585 6.20707 6.73886C5.97472 6.97188 5.79076 7.24817 5.66568 7.55195C5.54061 7.85574 5.47687 8.18107 5.4781 8.50937C5.47934 8.83768 5.54553 9.16253 5.67289 9.46537C5.80025 9.76821 5.98629 10.0431 6.22039 10.2744C6.45449 10.5057 6.73206 10.6888 7.03725 10.8133C7.34245 10.9378 7.66929 11.0012 7.99912 11Z" fill="#1B264F"/>
</svg>
