<svg width="17" height="16" viewBox="0 0 17 16" fill="none" xmlns="http://www.w3.org/2000/svg">
<path d="M9.84375 9.84375L14.7937 3.12188L13.8781 2.20625L7.15625 7.15625L9.84375 9.84375ZM4 10V7.75938C4 7.28125 4.225 6.83437 4.60938 6.55312L13.1438 0.2625C13.375 0.090625 13.6563 0 13.9438 0C14.3 0 14.6406 0.140625 14.8938 0.39375L16.6063 2.10625C16.8594 2.35938 17 2.7 17 3.05938C17 3.34688 16.9094 3.62812 16.7375 3.85938L10.45 12.3906C10.1687 12.775 9.71875 13 9.24375 13H7.00313L6.20937 13.7937C5.81875 14.1844 5.18437 14.1844 4.79375 13.7937L3.20937 12.2094C2.81875 11.8188 2.81875 11.1844 3.20937 10.7937L4 10ZM0.21875 14.5719L1.83438 12.9563L4.04063 15.1625L3.425 15.7781C3.28437 15.9187 3.09375 15.9969 2.89375 15.9969L0.75 16C0.334375 16 0 15.6656 0 15.25V15.1031C0 14.9031 0.078125 14.7125 0.21875 14.5719Z" fill="#FEFEFE"/>
</svg>
