<svg width="16" height="16" viewBox="0 0 16 16" fill="none" xmlns="http://www.w3.org/2000/svg">
<path d="M9.14286 3.64269V10.6664C9.14286 11.2564 8.63214 11.7331 8 11.7331C7.36786 11.7331 6.85714 11.2564 6.85714 10.6664V3.64269L5.37857 5.02276C4.93214 5.43945 4.20714 5.43945 3.76071 5.02276C3.31429 4.60607 3.31429 3.92937 3.76071 3.51268L7.18929 0.312516C7.63571 -0.104172 8.36071 -0.104172 8.80714 0.312516L12.2357 3.51268C12.6821 3.92937 12.6821 4.60607 12.2357 5.02276C11.7893 5.43945 11.0643 5.43945 10.6179 5.02276L9.14286 3.64269ZM8 13.3332C9.57857 13.3332 10.8571 12.1398 10.8571 10.6664H13.7143C14.975 10.6664 16 11.6231 16 12.7998V13.8666C16 15.0433 14.975 16 13.7143 16H2.28571C1.025 16 0 15.0433 0 13.8666V12.7998C0 11.6231 1.025 10.6664 2.28571 10.6664H5.14286C5.14286 12.1398 6.42143 13.3332 8 13.3332ZM13.1429 14.1332C13.6179 14.1332 14 13.7766 14 13.3332C14 12.8898 13.6179 12.5332 13.1429 12.5332C12.6679 12.5332 12.2857 12.8898 12.2857 13.3332C12.2857 13.7766 12.6679 14.1332 13.1429 14.1332Z" fill="white"/>
</svg>
