<svg width="14" height="16" viewBox="0 0 14 16" fill="none" xmlns="http://www.w3.org/2000/svg">
<path d="M12 16H3C1.34375 16 0 14.6562 0 13V3C0 1.34375 1.34375 0 3 0H12.5C13.3281 0 14 0.671875 14 1.5V10.5C14 11.1531 13.5813 11.7094 13 11.9156V14C13.5531 14 14 14.4469 14 15C14 15.5531 13.5531 16 13 16H12ZM3 12C2.44688 12 2 12.4469 2 13C2 13.5531 2.44688 14 3 14H11V12H3ZM4 4.75C4 5.16563 4.33437 5.5 4.75 5.5H10.25C10.6656 5.5 11 5.16563 11 4.75C11 4.33437 10.6656 4 10.25 4H4.75C4.33437 4 4 4.33437 4 4.75ZM4.75 7C4.33437 7 4 7.33437 4 7.75C4 8.16562 4.33437 8.5 4.75 8.5H10.25C10.6656 8.5 11 8.16562 11 7.75C11 7.33437 10.6656 7 10.25 7H4.75Z" fill="#484848"/>
</svg>
