<svg width="16" height="21" viewBox="0 0 16 21" fill="none" xmlns="http://www.w3.org/2000/svg">
<path d="M0 2.625C0 1.17715 1.19583 0 2.66667 0H8.89583C9.60417 0 10.2833 0.274805 10.7833 0.766992L15.2208 5.13926C15.7208 5.63145 16 6.3 16 6.99727V18.375C16 19.8229 14.8042 21 13.3333 21H2.66667C1.19583 21 0 19.8229 0 18.375V2.625ZM8.66667 2.39941V6.23438C8.66667 6.77988 9.1125 7.21875 9.66667 7.21875H13.5625L8.66667 2.39941ZM5 10.5C4.44583 10.5 4 10.9389 4 11.4844C4 12.0299 4.44583 12.4688 5 12.4688H11C11.5542 12.4688 12 12.0299 12 11.4844C12 10.9389 11.5542 10.5 11 10.5H5ZM5 14.4375C4.44583 14.4375 4 14.8764 4 15.4219C4 15.9674 4.44583 16.4062 5 16.4062H11C11.5542 16.4062 12 15.9674 12 15.4219C12 14.8764 11.5542 14.4375 11 14.4375H5Z" fill="#484848"/>
</svg>
