<svg width="16" height="16" viewBox="0 0 16 16" fill="none" xmlns="http://www.w3.org/2000/svg">
<path d="M8 3.41563V13.0813L8.01562 13.075C9.72188 12.3656 11.5531 12 13.4 12H14V2H13.4C12.0812 2 10.7719 2.2625 9.55313 2.76875C9.02813 2.9875 8.50937 3.20312 8 3.41563ZM7.21562 0.921875L8 1.25L8.78438 0.921875C10.2469 0.3125 11.8156 0 13.4 0H14.5C15.3281 0 16 0.671875 16 1.5V12.5C16 13.3281 15.3281 14 14.5 14H13.4C11.8156 14 10.2469 14.3125 8.78438 14.9219L8.38437 15.0875C8.1375 15.1906 7.8625 15.1906 7.61562 15.0875L7.21562 14.9219C5.75312 14.3125 4.18437 14 2.6 14H1.5C0.671875 14 0 13.3281 0 12.5V1.5C0 0.671875 0.671875 0 1.5 0H2.6C4.18437 0 5.75312 0.3125 7.21562 0.921875Z" fill="#484848"/>
</svg>
