<svg width="20" height="21" viewBox="0 0 20 21" fill="none" xmlns="http://www.w3.org/2000/svg">
<path d="M2.40601 0C1.07895 0 0 1.09982 0 2.45255V17.1679C0 18.5206 1.07895 19.6204 2.40601 19.6204H5.41353V15.3285C5.41353 13.9757 6.49248 12.8759 7.81955 12.8759H14.4361V6.53376C14.4361 5.8823 14.1842 5.25766 13.7331 4.79781L9.72556 0.716606C9.27444 0.256752 8.66541 0 8.02632 0H2.40601ZM12.2368 6.74453H8.7218C8.2218 6.74453 7.81955 6.33449 7.81955 5.82482V2.24179L12.2368 6.74453ZM7.81955 14.562C7.40601 14.562 7.06767 14.9069 7.06767 15.3285V20.2336C7.06767 20.6551 7.40601 21 7.81955 21C8.23308 21 8.57143 20.6551 8.57143 20.2336V19.1606H9.02256C10.2669 19.1606 11.2782 18.1297 11.2782 16.8613C11.2782 15.5929 10.2669 14.562 9.02256 14.562H7.81955ZM9.02256 17.6277H8.57143V16.0949H9.02256C9.43609 16.0949 9.77444 16.4398 9.77444 16.8613C9.77444 17.2828 9.43609 17.6277 9.02256 17.6277ZM12.6316 14.562C12.218 14.562 11.8797 14.9069 11.8797 15.3285V20.2336C11.8797 20.6551 12.218 21 12.6316 21H13.8346C14.9135 21 15.7895 20.1071 15.7895 19.0073V16.5547C15.7895 15.4549 14.9135 14.562 13.8346 14.562H12.6316ZM13.3835 19.4672V16.0949H13.8346C14.0827 16.0949 14.2857 16.3018 14.2857 16.5547V19.0073C14.2857 19.2602 14.0827 19.4672 13.8346 19.4672H13.3835ZM16.6917 15.3285V20.2336C16.6917 20.6551 17.0301 21 17.4436 21C17.8571 21 18.1955 20.6551 18.1955 20.2336V18.5474H19.2481C19.6617 18.5474 20 18.2026 20 17.781C20 17.3595 19.6617 17.0146 19.2481 17.0146H18.1955V16.0949H19.2481C19.6617 16.0949 20 15.75 20 15.3285C20 14.9069 19.6617 14.562 19.2481 14.562H17.4436C17.0301 14.562 16.6917 14.9069 16.6917 15.3285Z" fill="#484848"/>
</svg>
