<svg width="24" height="24" viewBox="0 0 24 24" fill="none" xmlns="http://www.w3.org/2000/svg">
<path d="M22.8749 9.00087H16.1244C15.6697 9.00087 15.2572 8.72901 15.0837 8.30716C14.9103 7.88531 15.004 7.40252 15.3275 7.0791L17.5167 4.89017C13.9868 2.14345 8.87702 2.39188 5.63303 5.63544C2.11715 9.15086 2.11715 14.8458 5.63303 18.3613C9.14891 21.8767 14.8446 21.8767 18.3605 18.3613C18.7449 17.9769 19.0871 17.5691 19.3872 17.1379C19.8606 16.4582 20.7982 16.2942 21.4779 16.7676C22.1577 17.241 22.3218 18.1785 21.8483 18.8581C21.4498 19.43 20.9951 19.9737 20.4841 20.4846C15.7963 25.1718 8.19728 25.1718 3.51412 20.4846C-1.16903 15.7973 -1.17372 8.20404 3.51412 3.51681C7.93476 -0.903246 14.9384 -1.15167 19.6544 2.75748L22.078 0.329496C22.4014 0.00607684 22.8843 -0.0876677 23.3062 0.0857597C23.7281 0.259187 24 0.671663 24 1.12632V7.87593C24 8.49933 23.4984 9.00087 22.8749 9.00087Z" fill="#FF6A00"/>
</svg>
