<svg width="64" height="20" viewBox="0 0 64 20" fill="none" xmlns="http://www.w3.org/2000/svg">
                        <path
                            d="M64 10C64 15.5228 59.5537 20 54.069 20C48.5842 20 44.1379 15.5228 44.1379 10C44.1379 4.47715 48.5842 0 54.069 0C59.5537 0 64 4.47715 64 10Z"
                            fill="#6B6B6B" />
                        <path
                            d="M19.8621 10C19.8621 15.5228 15.4158 20 9.93103 20C4.44628 20 0 15.5228 0 10C0 4.47715 4.44628 0 9.93103 0C15.4158 0 19.8621 4.47715 19.8621 10Z"
                            fill="#6B6B6B" />
                        <path
                            d="M8.27586 8.88889C8.27586 6.74112 10.005 5 12.1379 5H52.4138C54.5468 5 56.2759 6.74112 56.2759 8.88889V11.1111C56.2759 13.2589 54.5468 15 52.4138 15H12.1379C10.005 15 8.27586 13.2589 8.27586 11.1111V8.88889Z"
                            fill="#D9D9D9" />
                    </svg>