<svg width="18" height="12" viewBox="0 0 18 12" fill="none" xmlns="http://www.w3.org/2000/svg">
<path d="M2 0C0.896875 0 0 0.896875 0 2V10C0 11.1031 0.896875 12 2 12H16C17.1031 12 18 11.1031 18 10V2C18 0.896875 17.1031 0 16 0H2ZM2.5 2H3.5C3.775 2 4 2.225 4 2.5V3.5C4 3.775 3.775 4 3.5 4H2.5C2.225 4 2 3.775 2 3.5V2.5C2 2.225 2.225 2 2.5 2ZM2 5.5C2 5.225 2.225 5 2.5 5H3.5C3.775 5 4 5.225 4 5.5V6.5C4 6.775 3.775 7 3.5 7H2.5C2.225 7 2 6.775 2 6.5V5.5ZM5.5 2H6.5C6.775 2 7 2.225 7 2.5V3.5C7 3.775 6.775 4 6.5 4H5.5C5.225 4 5 3.775 5 3.5V2.5C5 2.225 5.225 2 5.5 2ZM5 5.5C5 5.225 5.225 5 5.5 5H6.5C6.775 5 7 5.225 7 5.5V6.5C7 6.775 6.775 7 6.5 7H5.5C5.225 7 5 6.775 5 6.5V5.5ZM5.5 8H12.5C12.775 8 13 8.225 13 8.5V9.5C13 9.775 12.775 10 12.5 10H5.5C5.225 10 5 9.775 5 9.5V8.5C5 8.225 5.225 8 5.5 8ZM8 2.5C8 2.225 8.225 2 8.5 2H9.5C9.775 2 10 2.225 10 2.5V3.5C10 3.775 9.775 4 9.5 4H8.5C8.225 4 8 3.775 8 3.5V2.5ZM8.5 5H9.5C9.775 5 10 5.225 10 5.5V6.5C10 6.775 9.775 7 9.5 7H8.5C8.225 7 8 6.775 8 6.5V5.5C8 5.225 8.225 5 8.5 5ZM11 2.5C11 2.225 11.225 2 11.5 2H12.5C12.775 2 13 2.225 13 2.5V3.5C13 3.775 12.775 4 12.5 4H11.5C11.225 4 11 3.775 11 3.5V2.5ZM11.5 5H12.5C12.775 5 13 5.225 13 5.5V6.5C13 6.775 12.775 7 12.5 7H11.5C11.225 7 11 6.775 11 6.5V5.5C11 5.225 11.225 5 11.5 5ZM14 2.5C14 2.225 14.225 2 14.5 2H15.5C15.775 2 16 2.225 16 2.5V3.5C16 3.775 15.775 4 15.5 4H14.5C14.225 4 14 3.775 14 3.5V2.5ZM14.5 5H15.5C15.775 5 16 5.225 16 5.5V6.5C16 6.775 15.775 7 15.5 7H14.5C14.225 7 14 6.775 14 6.5V5.5C14 5.225 14.225 5 14.5 5Z" fill="#484848"/>
</svg>
