<svg width="16" height="14" viewBox="0 0 16 14" fill="none" xmlns="http://www.w3.org/2000/svg">
<path d="M2.58826 0C1.15883 0 0 1.14905 0 2.56641V7.46592C0 7.98211 0.420592 8.39915 0.941185 8.39915C1.46178 8.39915 1.88237 7.98211 1.88237 7.46592V5.59944H3.76474V7.46592C3.76474 7.98211 4.18533 8.39915 4.70592 8.39915C5.22652 8.39915 5.64711 7.98211 5.64711 7.46592V2.56641C5.64711 1.14905 4.48827 0 3.05885 0H2.58826ZM3.76474 3.73296H1.88237V2.56641C1.88237 2.17853 2.19708 1.86648 2.58826 1.86648H3.05885C3.45003 1.86648 3.76474 2.17853 3.76474 2.56641V3.73296ZM8.00007 0C7.47948 0 7.05888 0.417041 7.05888 0.933239V7.46592C7.05888 7.98211 7.47948 8.39915 8.00007 8.39915H10.1177C11.5472 8.39915 12.706 7.2501 12.706 5.83275C12.706 5.14448 12.4325 4.52038 11.9883 4.05959C12.2913 3.63963 12.4707 3.12344 12.4707 2.56641C12.4707 1.14905 11.3119 0 9.88244 0H8.00007ZM9.88244 3.26634H8.94125V1.86648H9.88244C10.2736 1.86648 10.5883 2.17853 10.5883 2.56641C10.5883 2.95429 10.2736 3.26634 9.88244 3.26634ZM8.94125 6.53268V5.13282H10.1177C10.5089 5.13282 10.8236 5.44487 10.8236 5.83275C10.8236 6.22062 10.5089 6.53268 10.1177 6.53268H8.94125ZM15.7943 8.98243C16.1178 8.57997 16.0531 7.99378 15.6472 7.67006C15.2413 7.34634 14.6501 7.41342 14.3237 7.81588L11.2148 11.6684L10.0766 10.5398C9.70891 10.1752 9.11184 10.1752 8.74419 10.5398C8.37654 10.9043 8.37654 11.4963 8.74419 11.8609L10.6266 13.7274C10.8148 13.914 11.0766 14.0132 11.3442 13.9986C11.6119 13.984 11.8589 13.8557 12.0266 13.6486L15.7943 8.98243Z" fill="#25356e"/>
</svg>
