<svg width="14" height="16" viewBox="0 0 14 16" fill="none" xmlns="http://www.w3.org/2000/svg">
<path d="M8.11719 15C7.84215 15.3065 7.44336 15.5 7 15.5C6.55664 15.5 6.15785 15.3065 5.88281 15H8.11719ZM7 0.5C7.27698 0.5 7.5 0.723017 7.5 1V1.50879L7.90039 1.58984C9.95306 2.006 11.5 3.82368 11.5 6V6.67773C11.5 8.29449 12.0513 9.86395 13.0557 11.127L13.0566 11.1289L13.3633 11.5098L13.3643 11.5117C13.45 11.6176 13.4971 11.7495 13.4971 11.8906C13.4971 12.2269 13.224 12.4999 12.8877 12.5H1.10938C0.773017 12.5 0.5 12.227 0.5 11.8906C0.5 11.7495 0.547086 11.6176 0.632812 11.5117L0.633789 11.5098L0.939453 11.1289L0.94043 11.1279C1.94837 9.86465 2.5 8.29454 2.5 6.67773V6C2.5 3.82368 4.04694 2.006 6.09961 1.58984L6.5 1.50879V1C6.5 0.723017 6.72302 0.5 7 0.5Z" fill="white" stroke="white"/>
</svg>
