<svg width="16" height="16" viewBox="0 0 16 16" fill="none" xmlns="http://www.w3.org/2000/svg">
<path d="M4.88214 0.663636L4.57143 1.45455H1.14286C0.510714 1.45455 0 1.88788 0 2.42424C0 2.96061 0.510714 3.39394 1.14286 3.39394H14.8571C15.4893 3.39394 16 2.96061 16 2.42424C16 1.88788 15.4893 1.45455 14.8571 1.45455H11.4286L11.1179 0.663636C10.9607 0.266667 10.525 0 10.0321 0H5.96786C5.475 0 5.03929 0.266667 4.88214 0.663636ZM14.8571 4.84848H1.14286L1.89643 14.6394C1.95357 15.4061 2.70357 16 3.60714 16H12.3929C13.2964 16 14.0464 15.4061 14.1036 14.6394L14.8571 4.84848Z" fill="white"/>
</svg>
