<svg width="16" height="16" viewBox="0 0 16 16" fill="none" xmlns="http://www.w3.org/2000/svg">
<path d="M7.52571 0.147059L7.94857 1.22941L9 1.66471C9.08571 1.7 9.14286 1.78824 9.14286 1.88235C9.14286 1.97647 9.08571 2.06471 9 2.1L7.94857 2.53529L7.52571 3.61765C7.49143 3.70588 7.40571 3.76471 7.31429 3.76471C7.22286 3.76471 7.13714 3.70588 7.10286 3.61765L6.68 2.53529L5.62857 2.1C5.54286 2.06471 5.48571 1.97647 5.48571 1.88235C5.48571 1.78824 5.54286 1.7 5.62857 1.66471L6.68 1.22941L7.10286 0.147059C7.13714 0.0588235 7.22286 0 7.31429 0C7.40571 0 7.49143 0.0588235 7.52571 0.147059ZM3.16286 2.16765L3.77714 3.64118L5.20857 4.27353C5.37714 4.34706 5.48571 4.51765 5.48571 4.70588C5.48571 4.89412 5.37714 5.06471 5.20857 5.13824L3.77714 5.77059L3.16286 7.24412C3.09143 7.41765 2.92571 7.52941 2.74286 7.52941C2.56 7.52941 2.39429 7.41765 2.32286 7.24412L1.70857 5.77059L0.277143 5.13824C0.108571 5.06471 0 4.89412 0 4.70588C0 4.51765 0.108571 4.34706 0.277143 4.27353L1.70857 3.64118L2.32286 2.16765C2.39429 1.99412 2.56 1.88235 2.74286 1.88235C2.92571 1.88235 3.09143 1.99412 3.16286 2.16765ZM13.2571 9.88235C13.44 9.88235 13.6057 9.99412 13.6771 10.1676L14.2914 11.6412L15.7229 12.2735C15.8914 12.3471 16 12.5176 16 12.7059C16 12.8941 15.8914 13.0647 15.7229 13.1382L14.2914 13.7706L13.6771 15.2441C13.6057 15.4176 13.44 15.5294 13.2571 15.5294C13.0743 15.5294 12.9086 15.4176 12.8371 15.2441L12.2229 13.7706L10.7914 13.1382C10.6229 13.0647 10.5143 12.8941 10.5143 12.7059C10.5143 12.5176 10.6229 12.3471 10.7914 12.2735L12.2229 11.6412L12.8371 10.1676C12.9086 9.99412 13.0743 9.88235 13.2571 9.88235ZM13.1429 0.941176C13.4571 0.941176 13.76 1.07059 13.9857 1.3L15.1943 2.54412C15.4171 2.77647 15.5429 3.08824 15.5429 3.41176C15.5429 3.73529 15.4171 4.04706 15.1943 4.27941L12.6743 6.87353L9.78 3.89412L12.3 1.3C12.5257 1.07059 12.8286 0.941176 13.1429 0.941176ZM1.26286 12.6618L8.81143 4.89118L11.7057 7.87059L4.15714 15.6412C3.93143 15.8706 3.62857 16 3.31429 16C3 16 2.69714 15.8706 2.47143 15.6412L1.26286 14.3971C1.04 14.1647 0.914286 13.8529 0.914286 13.5294C0.914286 13.2059 1.04 12.8941 1.26286 12.6618Z" fill="white"/>
</svg>
